<?xml version="1.0" encoding="UTF-8"?>
<svg width="70px" height="67px" viewBox="0 0 70 67" version="1.1" xmlns="http://www.w3.org/2000/svg" xmlns:xlink="http://www.w3.org/1999/xlink">
    <!-- Generator: Sketch 53.2 (72643) - https://sketchapp.com -->
    <title>Group 17</title>
    <desc>Created with Sketch.</desc>
    <defs>
        <polygon id="path-1" points="0 35.399125 39.80875 35.399125 39.80875 -0.00025 0 -0.00025"></polygon>
    </defs>
    <g id="Page-1" stroke="none" stroke-width="1" fill="none" fill-rule="evenodd">
        <g id="Home" transform="translate(-935.000000, -961.000000)">
            <g id="Group-17" transform="translate(935.000000, 961.000000)">
                <path d="M35,67 C44.7540984,67 70,51.4432815 70,32.2530967 C70,13.0629119 63.6885246,10.6074848 42.4590164,2.06316431 C21.2295082,-6.48115618 0,13.0629119 0,32.2530967 C0,51.4432815 25.2459016,67 35,67 Z" id="Oval-Copy-5" fill-opacity="0.33" fill="#99EFE9"></path>
                <g id="Group-11" transform="translate(15.000000, 16.000000)">
                    <path d="M11.5828125,30.61275 L28.2253125,30.61275 C27.4334375,29.04775 24.0065625,27.264625 21.7465625,26.409 C21.5028125,26.3165 21.3415625,26.083375 21.3415625,25.82275 L21.3415625,20.577125 C21.3415625,20.302125 21.5209375,20.059 21.7834375,19.978375 C31.6321875,16.9365 32.3253125,4.18525 32.3528125,1.253375 L7.4553125,1.253375 C7.4821875,4.18525 8.1765625,16.9365 18.0253125,19.978375 C18.2878125,20.059 18.4671875,20.302125 18.4671875,20.577125 L18.4671875,25.82275 C18.4671875,26.083375 18.3059375,26.3165 18.0621875,26.409 C15.8015625,27.264625 12.3746875,29.04775 11.5828125,30.61275 M29.0190625,31.867125 L10.7884375,31.867125 C10.4421875,31.867125 10.1621875,31.5865 10.1621875,31.24025 C10.1621875,28.46025 15.5596875,26.064 17.2134375,25.39525 L17.2134375,21.032125 C5.6503125,17.053375 6.1996875,0.7665 6.2071875,0.60025 C6.2209375,0.264625 6.4971875,0.00025 6.8334375,0.00025 L32.9753125,0.00025 C33.3115625,0.00025 33.5878125,0.264625 33.6015625,0.60025 C33.6090625,0.7665 34.1578125,17.053375 22.5953125,21.032125 L22.5953125,25.39525 C24.2490625,26.064 29.6459375,28.46025 29.6459375,31.24025 C29.6459375,31.5865 29.3659375,31.867125 29.0190625,31.867125" id="Fill-1" stroke="#00B795" stroke-width="0.5" fill="#00B795"></path>
                    <path d="M10.045625,14.873 C2.609375,14.873 0.118125,4.30925 0.01625,3.85925 C-0.026875,3.673625 0.018125,3.478625 0.136875,3.328625 C0.255625,3.179875 0.43625,3.093 0.626875,3.093 L6.949375,3.093 C7.295625,3.093 7.57625,3.373625 7.57625,3.719875 C7.57625,4.06675 7.295625,4.34675 6.949375,4.34675 L1.448125,4.34675 C2.14875,6.69425 4.673125,13.618625 10.045625,13.618625 C10.391875,13.618625 10.6725,13.898625 10.6725,14.2455 C10.6725,14.592375 10.391875,14.873 10.045625,14.873" id="Fill-3" stroke="#00B795" stroke-width="0.5" fill="#00B795"></path>
                    <path d="M29.7630625,14.873 C29.4168125,14.873 29.1361875,14.592375 29.1361875,14.2455 C29.1361875,13.898625 29.4168125,13.618625 29.7630625,13.618625 C35.1443125,13.618625 37.6630625,6.693625 38.3611875,4.34675 L32.8593125,4.34675 C32.5130625,4.34675 32.2324375,4.06675 32.2324375,3.719875 C32.2324375,3.373625 32.5130625,3.093 32.8593125,3.093 L39.1818125,3.093 C39.3724375,3.093 39.5530625,3.179875 39.6718125,3.328625 C39.7905625,3.478625 39.8355625,3.673625 39.7924375,3.85925 C39.6905625,4.30925 37.1986875,14.873 29.7630625,14.873" id="Fill-5" stroke="#00B795" stroke-width="0.5" fill="#00B795"></path>
                    <path d="M16.5178125,8.623625 L18.2421875,9.87675 C18.4615625,10.036125 18.5534375,10.318625 18.4696875,10.57675 L17.8109375,12.604875 L19.5359375,11.35175 C19.7565625,11.19175 20.0521875,11.19175 20.2728125,11.35175 L21.9971875,12.60425 L21.3384375,10.57675 C21.2546875,10.31925 21.3465625,10.036125 21.5659375,9.87675 L23.2903125,8.623625 L21.1590625,8.623625 C20.8871875,8.623625 20.6465625,8.448625 20.5628125,8.1905 L19.9040625,6.163625 L19.2453125,8.1905 C19.1615625,8.448625 18.9209375,8.623625 18.6490625,8.623625 L16.5178125,8.623625 Z M16.6190625,14.873 C16.4896875,14.873 16.3609375,14.833 16.2503125,14.753 C16.0303125,14.593625 15.9384375,14.311125 16.0228125,14.052375 L17.1359375,10.623 L14.2190625,8.50425 C13.9996875,8.344875 13.9078125,8.06175 13.9915625,7.803625 C14.0753125,7.544875 14.3165625,7.369875 14.5878125,7.369875 L18.1934375,7.369875 L19.3078125,3.941125 C19.3921875,3.683 19.6321875,3.507375 19.9040625,3.507375 C20.1765625,3.507375 20.4165625,3.683 20.5009375,3.941125 L21.6146875,7.369875 L25.2203125,7.369875 C25.4915625,7.369875 25.7328125,7.544875 25.8165625,7.803625 C25.9003125,8.06175 25.8084375,8.344875 25.5884375,8.50425 L22.6715625,10.623 L23.7859375,14.052375 C23.8703125,14.3105 23.7784375,14.593625 23.5584375,14.753 C23.3390625,14.913 23.0415625,14.913 22.8209375,14.753 L19.9040625,12.63425 L16.9871875,14.753 C16.8771875,14.833 16.7478125,14.873 16.6190625,14.873 L16.6190625,14.873 Z" id="Fill-7" stroke="#00B795" stroke-width="0.5" fill="#00B795"></path>
                    <mask id="mask-2" fill="white">
                        <use xlink:href="#path-1"></use>
                    </mask>
                    <g id="Clip-10"></g>
                    <path d="M8.714375,34.14475 L31.094375,34.14475 L31.094375,31.866625 L8.714375,31.866625 L8.714375,34.14475 Z M31.72125,35.399125 L8.0875,35.399125 C7.74125,35.399125 7.460625,35.1185 7.460625,34.77225 L7.460625,31.240375 C7.460625,30.8935 7.74125,30.612875 8.0875,30.612875 L31.72125,30.612875 C32.0675,30.612875 32.348125,30.8935 32.348125,31.240375 L32.348125,34.77225 C32.348125,35.1185 32.0675,35.399125 31.72125,35.399125 L31.72125,35.399125 Z" id="Fill-9" stroke="#00B795" stroke-width="0.5" fill="#00B795" mask="url(#mask-2)"></path>
                </g>
            </g>
        </g>
    </g>
</svg>