<?xml version="1.0" encoding="UTF-8"?>
<svg width="70px" height="65px" viewBox="0 0 70 65" version="1.1" xmlns="http://www.w3.org/2000/svg" xmlns:xlink="http://www.w3.org/1999/xlink">
    <!-- Generator: Sketch 53.2 (72643) - https://sketchapp.com -->
    <title>Group 7</title>
    <desc>Created with Sketch.</desc>
    <defs>
        <polygon id="path-1" points="0 0.117722573 22.1040776 0.117722573 22.1040776 14.7913043 0 14.7913043"></polygon>
        <polygon id="path-3" points="0.173763211 0.120164211 18.0262001 0.120164211 18.0262001 18.7100053 0.173763211 18.7100053"></polygon>
    </defs>
    <g id="Page-1" stroke="none" stroke-width="1" fill="none" fill-rule="evenodd">
        <g id="Home" transform="translate(-135.000000, -958.000000)">
            <g id="Group-7" transform="translate(135.000000, 958.000000)">
                <path d="M35,65 C44.7540984,65 70,49.4281494 70,30.2192982 C70,11.0104471 61.7889826,0 42.4590164,0 C23.1290502,0 0,11.0104471 0,30.2192982 C0,49.4281494 25.2459016,65 35,65 Z" id="Oval-Copy-6" fill-opacity="0.3" fill="#FFCBA5"></path>
                <g id="Group-4" transform="translate(15.000000, 12.000000)">
                    <g id="Group">
                        <path d="M5.92694655,20.8280182 L6.00137322,21.4397124 C6.31489074,24.0174981 8.5133697,25.9614336 11.1152181,25.9614336 C13.7159095,25.9614336 15.91381,24.0182687 16.2282916,21.4418317 L16.301947,20.8368805 L16.9023736,20.942458 C16.9482636,20.950357 16.9889476,20.9542102 17.0273178,20.9542102 C17.4347364,20.9542102 17.7661857,20.622643 17.7661857,20.2149753 L17.7661857,18.2394436 C17.7661857,17.8317758 17.4347364,17.5002086 17.0273178,17.5002086 C16.9912614,17.5002086 16.9569403,17.5042545 16.9224264,17.5086857 L16.2676259,17.5957678 L16.2676259,16.1656555 C16.2676259,13.3266234 13.9563501,11.0168273 11.1152181,11.0168273 C8.2737004,11.0168273 5.9618461,13.3266234 5.9618461,16.1656555 L5.9618461,17.6061714 L5.30029714,17.5100343 C5.25421431,17.5032912 5.21854349,17.5002086 5.18788588,17.5002086 C4.7798889,17.5002086 4.44786112,17.8317758 4.44786112,18.2394436 L4.44786112,20.2149753 C4.44786112,20.622643 4.7798889,20.9542102 5.18788588,20.9542102 C5.23088367,20.9542102 5.27426709,20.9499717 5.32073555,20.941302 L5.92694655,20.8280182 Z M11.1152181,27.1173913 C8.10479428,27.1173913 5.53514606,24.9913924 4.9370333,22.0937918 C4.00920653,21.9706823 3.2909699,21.1749981 3.2909699,20.2149753 L3.2909699,18.2394436 C3.2909699,17.3254664 3.94191403,16.5606077 4.80495488,16.3829755 L4.80495488,16.1656555 C4.80495488,12.6891127 7.63567489,9.86086957 11.1152181,9.86086957 C14.5943756,9.86086957 17.4245172,12.6891127 17.4245172,16.1656555 L17.4245172,16.3860581 C18.2798454,16.5692774 18.9230769,17.3306682 18.9230769,18.2394436 L18.9230769,20.2149753 C18.9230769,21.1697963 18.2131313,21.9620127 17.29321,22.0916726 C16.6960613,24.9904292 14.1258347,27.1173913 11.1152181,27.1173913 L11.1152181,27.1173913 Z" id="Fill-1" stroke="#FF8D38" stroke-width="0.25" fill="#FF8D38"></path>
                        <g id="Group-5" transform="translate(0.000000, 25.565217)">
                            <mask id="mask-2" fill="white">
                                <use xlink:href="#path-1"></use>
                            </mask>
                            <g id="Clip-4"></g>
                            <path d="M22.1040776,14.7913043 L-5.79496874e-05,14.7913043 L-5.79496874e-05,9.85384538 C-5.79496874e-05,6.31527909 2.74424608,3.4364455 6.11730421,3.4364455 L7.97671652,3.4364455 L7.97671652,0.725584395 C7.97671652,0.389842049 8.23633112,0.117722573 8.55621339,0.117722573 C8.87628883,0.117722573 9.13571026,0.389842049 9.13571026,0.725584395 L9.13571026,4.65216915 L6.11730421,4.65216915 C3.38323796,4.65216915 1.1589358,6.98575068 1.1589358,9.85384538 L1.1589358,13.5755807 L20.9450839,13.5755807 L20.9450839,9.85384538 C20.9450839,6.98575068 18.7207817,4.65216915 15.9869086,4.65216915 L12.9681163,4.65216915 L12.9681163,0.725584395 C12.9681163,0.389842049 13.2275377,0.117722573 13.5476131,0.117722573 C13.8676886,0.117722573 14.12711,0.389842049 14.12711,0.725584395 L14.12711,3.4364455 L15.9869086,3.4364455 C19.3599668,3.4364455 22.1040776,6.31527909 22.1040776,9.85384538 L22.1040776,14.7913043 Z" id="Fill-3" stroke="#FF8D38" stroke-width="0.25" fill="#FF8D38" mask="url(#mask-2)"></path>
                        </g>
                        <path d="M11.1073369,37.0695652 L6.68195099,30.5737123 C6.50284697,30.3110307 6.57080283,29.9529856 6.83379588,29.773963 C7.09659696,29.5947485 7.45499697,29.6628654 7.63390903,29.9257388 L11.1073369,35.024141 L14.5801889,29.9257388 C14.7591009,29.6630572 15.117309,29.5951323 15.380302,29.773963 C15.6431031,29.9527937 15.7112509,30.3108389 15.5321469,30.5737123 L11.1073369,37.0695652 Z" id="Fill-6" stroke="#FF8D38" stroke-width="0.25" fill="#FF8D38"></path>
                        <path d="M6.08943041,17.2565217 C5.89910293,17.2565217 5.70617917,17.2528729 5.50846227,17.245054 C5.17793554,17.2318487 4.92210185,16.9880723 4.93708041,16.7005099 C4.95205896,16.4129476 5.23525347,16.1917591 5.56278449,16.2034006 C10.8034806,16.4110363 13.0724318,13.4050974 13.0947998,13.3746905 L13.8650968,12.326087 L14.1836407,13.5392352 C14.1900316,13.5628657 14.856677,15.9816909 16.7595524,16.2077445 C17.0872831,16.2466653 17.3167546,16.5095546 17.2720186,16.7948582 C17.2272827,17.0801617 16.9243165,17.2798047 16.5971849,17.2407102 C14.8123405,17.0285569 13.8435277,15.6612891 13.3779943,14.7070338 C12.2931476,15.6894372 9.95629365,17.2565217 6.08943041,17.2565217" id="Fill-8" stroke="#FF8D38" stroke-width="0.25" fill="#FF8D38"></path>
                        <path d="M17.5770863,15.6130435 L17.026822,15.5210286 C16.989516,15.5147806 16.961054,15.5119407 16.9372553,15.5119407 C16.6706457,15.5119407 16.4548495,15.257669 16.4548495,14.9439473 C16.4548495,14.7775252 16.5154718,14.6279537 16.6122746,14.5240109 L16.6122746,14.2252464 C16.6122746,10.9125198 18.9012903,8.2173913 21.7150028,8.2173913 C21.9229197,8.2173913 22.1327663,8.23234846 22.338432,8.26188412 C22.603112,8.300129 22.7912503,8.58336836 22.7589291,8.89462872 C22.7264471,9.20607841 22.4860482,9.42835314 22.2216898,9.38954026 C22.0546165,9.36549521 21.8840057,9.35337802 21.7150028,9.35337802 C19.433384,9.35337802 17.5770863,11.5388271 17.5770863,14.2252464 L17.5770863,15.6130435 Z" id="Fill-10" stroke="#FF8D38" stroke-width="0.25" fill="#FF8D38"></path>
                        <path d="M22.9060205,25.473913 C20.4896448,25.473913 18.2994863,24.0074371 17.3264453,21.7377175 C17.198358,21.4389873 17.3308621,21.0904359 17.621987,20.959286 C17.9138801,20.8279392 18.2532059,20.9638152 18.3812932,21.2621516 C19.1703648,23.1029757 20.9464959,24.2923828 22.9060205,24.2923828 C25.3992101,24.2923828 27.5071777,22.38047 27.8088646,19.8449061 L27.8824139,19.2271627 L28.4800267,19.334485 C28.5232345,19.342165 28.5614495,19.3459065 28.597168,19.3459065 C28.9787414,19.3459065 29.2892619,19.0270902 29.2892619,18.6350191 L29.2892619,16.6833281 C29.2892619,16.2916508 28.9787414,15.9728346 28.597168,15.9728346 C28.5631778,15.9728346 28.5303398,15.9769699 28.4975019,15.9813022 C28.1827566,16.0224589 27.8927838,15.795802 27.8516884,15.4720627 C27.8104008,15.1487172 28.0327773,14.8521532 28.3482907,14.809815 C28.4122383,14.8013474 28.498462,14.7913043 28.597168,14.7913043 C29.614185,14.7913043 30.4414716,15.6400369 30.4414716,16.6833281 L30.4414716,18.6350191 C30.4414716,19.5837879 29.7576351,20.3716716 28.8692815,20.5069569 C28.2870316,23.3725615 25.8082445,25.473913 22.9060205,25.473913" id="Fill-12" stroke="#FF8D38" stroke-width="0.25" fill="#FF8D38"></path>
                        <path d="M33.7324415,37.8913043 L21.9683345,37.8913043 C21.6496215,37.8913043 21.3913043,37.6240518 21.3913043,37.2943144 C21.3913043,36.9645769 21.6496215,36.6973244 21.9683345,36.6973244 L32.5783811,36.6973244 L32.5783811,33.1844365 C32.5783811,30.47251 30.4464469,28.2664331 27.8257681,28.2664331 L24.900802,28.2664331 L24.900802,24.5187291 C24.900802,24.1889916 25.1591192,23.9217391 25.4778322,23.9217391 C25.7965452,23.9217391 26.0548624,24.1889916 26.0548624,24.5187291 L26.0548624,27.0724532 L27.8257681,27.0724532 C31.0827188,27.0724532 33.7324415,29.8142291 33.7324415,33.1844365 L33.7324415,37.8913043 Z" id="Fill-14" stroke="#FF8D38" stroke-width="0.25" fill="#FF8D38"></path>
                        <path d="M13.725409,30.4956522 C13.599003,30.4956522 13.4718479,30.448818 13.3669777,30.3530864 C13.1282108,30.1348018 13.0952516,29.7446544 13.2931941,29.4815988 C14.3903982,28.0241679 16.0040879,27.1883733 17.7205878,27.1883733 L19.4449529,27.1883733 L19.4449529,24.5406934 C19.4449529,24.1988243 19.6962668,23.9217391 20.0067574,23.9217391 C20.3170607,23.9217391 20.5685619,24.1988243 20.5685619,24.5406934 L20.5685619,28.4262818 L17.7205878,28.4262818 C16.3394851,28.4262818 15.041155,29.0988788 14.1579984,30.2717971 C14.0469484,30.4193145 13.8868341,30.4956522 13.725409,30.4956522" id="Fill-16" stroke="#FF8D38" stroke-width="0.25" fill="#FF8D38"></path>
                        <path d="M23.3681793,21.3652174 L21.8826569,21.3652174 C21.6111027,21.3652174 21.3913043,21.1812848 21.3913043,20.9543478 C21.3913043,20.7274109 21.6111027,20.5434783 21.8826569,20.5434783 L23.3681793,20.5434783 C23.6395696,20.5434783 23.8595318,20.7274109 23.8595318,20.9543478 C23.8595318,21.1812848 23.6395696,21.3652174 23.3681793,21.3652174" id="Fill-18" stroke="#FF8D38" stroke-width="0.25" fill="#FF8D38"></path>
                        <path d="M11.8498172,23.8304348 L10.3642296,23.8304348 C10.0928572,23.8304348 9.8729097,23.6465022 9.8729097,23.4195652 C9.8729097,23.1926283 10.0928572,23.0086957 10.3642296,23.0086957 L11.8498172,23.0086957 C12.1211896,23.0086957 12.3411371,23.1926283 12.3411371,23.4195652 C12.3411371,23.6465022 12.1211896,23.8304348 11.8498172,23.8304348" id="Fill-20" stroke="#FF8D38" stroke-width="0.25" fill="#FF8D38"></path>
                        <g id="Group-24" transform="translate(21.985507, 0.000000)">
                            <mask id="mask-4" fill="white">
                                <use xlink:href="#path-3"></use>
                            </mask>
                            <g id="Clip-23"></g>
                            <path d="M1.32910371,13.0358274 L3.48747231,13.0358274 L3.48747231,16.0522674 L6.77268301,13.0358274 L12.6454713,13.0358274 C14.975408,13.0358274 16.8709366,11.3250789 16.8709366,9.22260316 L16.8709366,1.31384842 L5.55476157,1.31384842 C3.22482491,1.31384842 1.32910371,3.02459684 1.32910371,5.12727158 L1.32910371,13.0358274 Z M2.33213182,18.7100053 L2.33213182,14.2295116 L0.173763211,14.2295116 L0.173763211,5.12727158 C0.173763211,2.36628 2.58765462,0.120164211 5.55476157,0.120164211 L18.0262771,0.120164211 L18.0262771,9.22260316 C18.0262771,11.9833958 15.6123857,14.2295116 12.6454713,14.2295116 L7.21190496,14.2295116 L2.33213182,18.7100053 Z" id="Fill-22" stroke="#FF8D38" stroke-width="0.25" fill="#FF8D38" mask="url(#mask-4)"></path>
                        </g>
                        <path d="M36.1905066,7.03043478 L25.8808423,7.03043478 C25.5470313,7.03043478 25.2764771,6.72388043 25.2764771,6.34565217 C25.2764771,5.96742391 25.5470313,5.66086957 25.8808423,5.66086957 L36.1905066,5.66086957 C36.5243176,5.66086957 36.7948718,5.96742391 36.7948718,6.34565217 C36.7948718,6.72388043 36.5243176,7.03043478 36.1905066,7.03043478" id="Fill-25" fill="#FF8D38"></path>
                        <path d="M36.1905066,10.3173913 L25.8808423,10.3173913 C25.5470313,10.3173913 25.2764771,10.010837 25.2764771,9.6326087 C25.2764771,9.25438043 25.5470313,8.94782609 25.8808423,8.94782609 L36.1905066,8.94782609 C36.5243176,8.94782609 36.7948718,9.25438043 36.7948718,9.6326087 C36.7948718,10.010837 36.5243176,10.3173913 36.1905066,10.3173913" id="Fill-27" fill="#FF8D38"></path>
                    </g>
                </g>
            </g>
        </g>
    </g>
</svg>