<?xml version="1.0" encoding="UTF-8"?>
<svg width="70px" height="64px" viewBox="0 0 70 64" version="1.1" xmlns="http://www.w3.org/2000/svg" xmlns:xlink="http://www.w3.org/1999/xlink">
    <!-- Generator: Sketch 53.2 (72643) - https://sketchapp.com -->
    <title>Group 16</title>
    <desc>Created with Sketch.</desc>
    <defs>
        <polygon id="path-1" points="0 39.2727273 40 39.2727273 40 0 0 0"></polygon>
    </defs>
    <g id="Page-1" stroke="none" stroke-width="1" fill="none" fill-rule="evenodd">
        <g id="Home" transform="translate(-535.000000, -953.000000)">
            <g id="Group-16" transform="translate(535.000000, 953.000000)">
                <path d="M31.2485431,67 C62.8973738,67 67,51.0844334 67,31.4515871 C67,11.8187408 51.7616741,11.6377176 38.867706,0.565261139 C25.973738,-10.5071953 3.11624915,5.99113211 3.11624915,25.6239784 C3.11624915,45.2568248 -0.400287596,67 31.2485431,67 Z" id="Oval-Copy-8" fill-opacity="0.33" fill="#AEDAFC" transform="translate(35.000000, 32.000000) rotate(-270.000000) translate(-35.000000, -32.000000) "></path>
                <g id="Group-9" transform="translate(15.000000, 12.000000)">
                    <path d="M37.1477052,27.6614353 L34.3003066,27.6614353 L34.3134066,34.178156 C34.3143424,34.852396 33.4759365,35.1657357 33.0324048,34.6574912 L26.9277618,27.6614353 L10.1250221,27.6614353 C8.95162813,27.6614353 8,26.7120904 8,25.5435943 L8,2.84604626 C8,1.675685 8.95162813,0.727272727 10.1250221,0.727272727 L37.1477052,0.727272727 C38.3220349,0.727272727 39.2727273,1.675685 39.2727273,2.84604626 L39.2727273,25.5435943 C39.2727273,26.7120904 38.3220349,27.6614353 37.1477052,27.6614353 Z" id="Stroke-1" stroke="#0078D7" stroke-width="2"></path>
                    <path d="M5.45955277,8.72727273 L2.30905952,8.72727273 C1.43547969,8.72727273 0.727272727,9.44306395 0.727272727,10.3251216 L0.727272727,31.4794764 C0.727272727,32.3615341 1.43547969,33.0773253 2.30905952,33.0773253 L4.42807456,33.0773253 L4.41873146,37.9948674 C4.41779715,38.5030603 5.04191621,38.7388393 5.37172763,38.355581 L9.91434275,33.0773253 L22.4182132,33.0773253 C23.291793,33.0773253 24,32.3615341 24,31.4794764 L24,30.0760747" id="Stroke-3" stroke="#0078D7" stroke-width="2"></path>
                    <mask id="mask-2" fill="white">
                        <use xlink:href="#path-1"></use>
                    </mask>
                    <g id="Clip-6"></g>
                    <polygon id="Stroke-5" stroke="#0078D7" stroke-width="2" stroke-linecap="round" stroke-linejoin="round" mask="url(#mask-2)" points="16 21.0909091 18.9090909 21.0909091 18.9090909 11.6363636 16 11.6363636"></polygon>
                    <path d="M19.6363636,12.8167534 C19.6363636,12.8167534 22.0297543,12.3607667 23.9963674,9.26890715 L23.9963674,7.44880813 C23.9963674,7.44880813 26.8183441,5.99330612 26.0488785,11.4516792 C26.0488785,11.4516792 25.9773771,11.818657 25,14" id="Stroke-7" stroke="#0078D7" stroke-width="2" stroke-linecap="round" stroke-linejoin="round" mask="url(#mask-2)"></path>
                    <path d="M27.9418494,12.3636364 L29.6390244,12.3636364 C29.6390244,12.3636364 31.5147004,12.7965003 31.2464769,14.3540782 C30.9782533,15.9116561 30.353028,19.372737 30.353028,19.372737 C30.353028,19.372737 30.0857489,20.2384648 29.1923,20.3254036 C28.2988511,20.4114273 22.4942667,20.3254036 22.4942667,20.3254036 L19.6363636,18.4795548" id="Stroke-8" stroke="#0078D7" stroke-width="2" stroke-linecap="round" stroke-linejoin="round" mask="url(#mask-2)"></path>
                </g>
            </g>
        </g>
    </g>
</svg>