<?xml version="1.0" encoding="UTF-8"?>
<svg width="69px" height="71px" viewBox="0 0 69 71" version="1.1" xmlns="http://www.w3.org/2000/svg" xmlns:xlink="http://www.w3.org/1999/xlink">
    <!-- Generator: Sketch 53.2 (72643) - https://sketchapp.com -->
    <title>Group 15</title>
    <desc>Created with Sketch.</desc>
    <defs>
        <polygon id="path-1" points="0.0588235294 0.588235294 10.0588235 0.588235294 10.0588235 13.5882353 0.0588235294 13.5882353"></polygon>
    </defs>
    <g id="Page-1" stroke="none" stroke-width="1" fill="none" fill-rule="evenodd">
        <g id="Home" transform="translate(-535.000000, -791.000000)">
            <g id="Group-15" transform="translate(535.000000, 791.000000)">
                <path d="M26.3280228,70 C46.2154957,70 62.9898039,58.3877288 68.988848,41.1868132 C74.9878922,23.9858975 53.198069,1 32.5514843,1 C11.9048996,1 -1,10.4338528 -1,35.9785397 C-1,61.5232267 6.44054982,70 26.3280228,70 Z" id="Oval-Copy-4" fill-opacity="0.2" fill="#FF9EB0" transform="translate(34.500000, 35.500000) rotate(-270.000000) translate(-34.500000, -35.500000) "></path>
                <g id="Group-14" transform="translate(12.000000, 17.000000)">
                    <path d="M8.00908587,18.6096065 L8.12419281,18.6097606 C10.5732971,18.6126886 12.9458769,18.7307342 15.176294,18.9605071 C15.51329,18.9947187 15.8522071,19.0321666 16.1898434,19.0728508 L16.1898434,9.14345805 C14.2400695,9.3260743 12.1755089,9.41838412 10.0421082,9.41838412 L10.0419481,9.41838412 C8.47079438,9.41838412 6.82599784,9.36829949 5.14918268,9.2695172 C5.02479034,9.53827901 4.83331899,10.2502512 4.7193327,11.6618672 C4.60870837,13.0435864 4.60486613,14.7014646 4.70892665,16.0962829 C4.82003126,17.6259444 5.02174857,18.3836863 5.15142399,18.6593829 C6.11294316,18.6264041 7.07318159,18.6096065 8.00908587,18.6096065 M16.8302158,20.3921569 C16.8009188,20.3921569 16.7714617,20.3903076 16.7420045,20.3863008 C16.1810383,20.3112509 15.6088655,20.2440605 15.0410153,20.1865787 C12.8541435,19.961275 10.5268701,19.845541 8.12243179,19.8426129 L8.00908587,19.8424588 C7.01666873,19.8424588 5.99639538,19.861568 4.97644223,19.8993241 C4.96827748,19.8996324 4.96011273,19.8997865 4.95194798,19.8997865 C4.06359135,19.8997865 3.62301514,18.8231982 3.43138369,16.1836613 C3.32300066,14.73244 3.32716308,13.0061385 3.44243012,11.5667834 C3.64542817,9.05006948 4.08280253,8.02356581 4.95194798,8.02356581 C4.96555589,8.02356581 4.97916381,8.02402813 4.99277172,8.02464455 C6.72497909,8.1315945 8.423727,8.18553178 10.0419481,8.18553178 C12.3897134,8.18553178 14.6499079,8.07164705 16.7597749,7.84695971 C16.9413204,7.82738818 17.1217454,7.88363707 17.2575043,8.00044983 C17.3931032,8.11741669 17.4705882,8.28431408 17.4705882,8.45968732 L17.4705882,19.7757307 C17.4705882,19.9541861 17.3903816,20.1235492 17.2507804,20.2406701 C17.1334322,20.3389901 16.9839052,20.3921569 16.8302158,20.3921569" id="Fill-1" stroke="#FF385C" stroke-width="0.66" fill="#FF385C"></path>
                    <path d="M17.9156365,19.2187499 C24.3014035,20.1751801 29.672947,22.2679706 34.280442,25.5981484 L34.280442,2.69549835 C29.8928491,6.08415733 24.5203836,8.13471141 17.9156365,8.9457122 L17.9156365,19.2187499 Z M34.8952766,27.4509804 C34.7612762,27.4509804 34.6283514,27.4070422 34.5184772,27.3211769 C29.744711,23.5954003 24.0853432,21.3211325 17.2170515,20.3684155 C16.9129381,20.3260244 16.6862745,20.0644062 16.6862745,19.7552914 L16.6862745,8.39462773 C16.6862745,8.07916977 16.9220047,7.81414795 17.2334943,7.77964716 C24.3610276,6.98612883 30.0084091,4.74558829 34.4986537,0.930233362 C34.6815213,0.775057132 34.9367676,0.740401623 35.1540573,0.841892757 C35.370886,0.94338389 35.5098039,1.1623015 35.5098039,1.40318823 L35.5098039,26.832132 C35.5098039,27.0682227 35.3762645,27.2838913 35.1655826,27.3878579 C35.0798346,27.4300943 34.9871714,27.4509804 34.8952766,27.4509804 L34.8952766,27.4509804 Z" id="Fill-3" stroke="#FF385C" stroke-width="0.66" fill="#FF385C"></path>
                    <path d="M1.73319256,12.1556455 C1.67398315,12.1556455 1.56346926,12.2658255 1.46690524,12.4764897 C1.32275669,12.79087 1.23998752,13.2461337 1.23998752,13.7256371 C1.23998752,14.7451694 1.590129,15.2953349 1.73319256,15.2953349 L2.63342349,15.2953349 C2.58242901,14.2768309 2.58490898,13.168567 2.64055342,12.1556455 L1.73319256,12.1556455 Z M3.29433684,16.4705882 L3.29123687,16.4705882 L1.73319256,16.4705882 C0.696562989,16.4705882 0,15.3673191 0,13.7256371 C0,13.0815983 0.117023822,12.4714949 0.329681682,12.0080043 C0.739807554,11.1139303 1.38506606,10.9803922 1.73319256,10.9803922 L3.30162177,10.9803922 C3.47429003,10.9803922 3.63920837,11.0487038 3.75654219,11.1687265 C3.87387601,11.2888962 3.93293041,11.4499059 3.91975555,11.6132661 C3.81420161,12.9114803 3.80908666,14.4648715 3.90534069,15.7823305 C3.91123063,15.8150907 3.9143306,15.8487323 3.9143306,15.8829616 C3.9143306,16.2074784 3.6367284,16.4705882 3.29433684,16.4705882 L3.29433684,16.4705882 Z" id="Fill-5" stroke="#FF385C" stroke-width="0.66" fill="#FF385C"></path>
                    <path d="M10.3272457,20.0738626 C10.456213,22.1264344 10.7184516,25.4380645 11.1945084,28.3829303 C12.0997387,33.9828648 13.1185648,34.0476796 13.12871,34.0476796 L17.707125,34.0476796 C17.8127275,34.0476796 17.9478434,33.9668169 18.0014901,33.8121028 C18.0924896,33.5503508 17.9443079,33.0707838 17.2559701,32.5097308 C16.868146,32.1939146 15.7008308,31.2433498 15.761241,20.3603875 C14.0259471,20.1899371 12.2031892,20.0938056 10.3272457,20.0738626 M17.707125,35.2941176 L13.12871,35.2941176 C11.7017694,35.2941176 10.7310563,33.2248747 9.98107853,28.5845416 C9.44046126,25.2408157 9.17176664,21.4468141 9.05986178,19.4825835 C9.05002399,19.3111983 9.11043417,19.1433966 9.22679677,19.0187528 C9.34300566,18.894109 9.50456061,18.8235294 9.67364761,18.8235294 L9.67441619,18.8235294 C12.026109,18.8263339 14.3043258,18.9458361 16.4457359,19.178141 C16.7603915,19.2124181 16.9980356,19.4828951 16.995115,19.8036971 C16.9167201,28.3400839 17.6064413,31.1962967 18.026392,31.5382882 C19.4816162,32.7241182 19.3049972,33.8130376 19.1614269,34.226076 C18.9394618,34.8650313 18.3550356,35.2941176 17.707125,35.2941176" id="Fill-7" stroke="#FF385C" stroke-width="0.66" fill="#FF385C"></path>
                    <path d="M35.8707207,26.1775068 L35.67,26.0920421 L35.67,1.93281758 L35.8495933,1.84085573 C36.0407052,1.74299573 36.4969157,1.67 37.0001495,1.67 C37.5033473,1.67 37.959266,1.74298096 38.1504067,1.84085573 L38.33,1.93281758 L38.33,26.0918209 L38.1295626,26.177386 C37.9263434,26.2641386 37.4827173,26.33 37.0001495,26.33 C36.5175205,26.33 36.074337,26.2642043 35.8707207,26.1775068 Z M34.33,26.6715745 C34.33,27.1979756 35.396041,27.67 37.0001322,27.67 C38.6041731,27.67 39.67,27.1980115 39.67,26.6715745 L39.67,1.35030151 C39.67,0.822074554 38.5767922,0.33 37.0001322,0.33 C35.4232492,0.33 34.33,0.822062646 34.33,1.35030151 L34.33,26.6715745 Z" id="Fill-9" stroke="#FF385C" stroke-width="0.66" fill="#FF385C"></path>
                    <g id="Group-13" transform="translate(39.941176, 6.411765)">
                        <mask id="mask-2" fill="white">
                            <use xlink:href="#path-1"></use>
                        </mask>
                        <g id="Clip-12"></g>
                        <path d="M0.0588235294,4.58823529 L0.0588235294,10.5882353 C0.860927882,10.4727643 1.52855544,10.1886469 2.05046377,9.73896956 C2.69128245,9.18686966 3.05882353,8.40270541 3.05882353,7.58697255 C3.05882353,6.28396067 2.11316196,4.8929776 0.0588235294,4.58823529 M-0.271575453,11.5882353 C-0.641270191,11.5882353 -0.941176471,11.3479173 -0.941176471,11.0515117 L-0.941176471,4.12495893 C-0.941176471,3.8285533 -0.64143755,3.58823529 -0.271742811,3.58823529 C2.57117458,3.58823529 4.05882353,5.60054639 4.05882353,7.5881682 C4.05882353,9.5759242 2.57134194,11.5882353 -0.271575453,11.5882353" id="Fill-11" stroke="#FF385C" stroke-width="0.66" fill="#FF385C" mask="url(#mask-2)"></path>
                    </g>
                </g>
            </g>
        </g>
    </g>
</svg>