<?xml version="1.0" encoding="UTF-8"?>
<svg width="146px" height="40px" viewBox="0 0 146 40" version="1.1" xmlns="http://www.w3.org/2000/svg" xmlns:xlink="http://www.w3.org/1999/xlink">
    <!-- Generator: Sketch 53.2 (72643) - https://sketchapp.com -->
    <title>Group Copy 2</title>
    <desc>Created with Sketch.</desc>
    <g id="Page-1" stroke="none" stroke-width="1" fill="none" fill-rule="evenodd">
        <g id="Home" transform="translate(-135.000000, -30.000000)" fill="#0078D7">
            <g id="Group-Copy-2" transform="translate(135.000000, 30.000000)">
                <path d="M4,0 L39.4656489,-1.77635684e-15 C41.6747879,-2.18216909e-15 43.4656489,1.790861 43.4656489,4 L43.4656489,29.3333333 C43.4656489,31.5424723 41.6747879,33.3333333 39.4656489,33.3333333 L27.8625954,33.3333333 L15.6030534,40 L15.6030534,33.3333333 L4,33.3333333 C1.790861,33.3333333 5.93759479e-13,31.5424723 5.91526828e-13,29.3333333 L5.93303184e-13,4 C5.93032643e-13,1.790861 1.790861,4.05812251e-16 4,0 Z M6.8631145,6.44444444 L6.8631145,26.6666667 L11.5574046,26.6666667 L11.5574046,6.44444444 L6.8631145,6.44444444 Z M37.1999084,6.44444444 L32.5635725,6.44444444 L32.5635725,18.7222222 L22.479542,6.44444444 L18.5966107,6.44444444 L18.5966107,26.6666667 L23.2329466,26.6666667 L23.2329466,14.3888889 L33.3459542,26.6666667 L37.1999084,26.6666667 L37.1999084,6.44444444 Z" id="Combined-Shape"></path>
                <path d="M54.2473588,27.0133333 C52.6439513,27.0133333 51.093692,26.7966688 49.5965344,26.3633333 C48.0993767,25.9299978 46.8968391,25.3666701 45.9888855,24.6733333 L47.582626,21.1488889 C48.4519433,21.7844476 49.4854495,22.2948129 50.6831756,22.68 C51.8809017,23.0651871 53.0786098,23.2577778 54.2763359,23.2577778 C55.6092891,23.2577778 56.5945006,23.0603723 57.232,22.6655556 C57.8694994,22.2707388 58.1882443,21.7459292 58.1882443,21.0911111 C58.1882443,20.6096272 57.999895,20.2100016 57.6231908,19.8922222 C57.2464867,19.5744429 56.7635398,19.3192602 56.1743359,19.1266667 C55.5851319,18.9340731 54.7882697,18.7222234 53.7837252,18.4911111 C52.2382722,18.1251834 50.9729515,17.7592611 49.9877252,17.3933333 C49.0024989,17.0274056 48.1573419,16.440004 47.452229,15.6311111 C46.7471161,14.8222182 46.3945649,13.7437104 46.3945649,12.3955556 C46.3945649,11.2207349 46.7133098,10.1566714 47.3508092,9.20333333 C47.9883085,8.24999523 48.9493727,7.49407687 50.2340305,6.93555556 C51.5186884,6.37703424 53.0882655,6.09777778 54.9428092,6.09777778 C56.2371261,6.09777778 57.5024467,6.25185031 58.7388092,6.56 C59.9751716,6.86814969 61.0569725,7.31110822 61.9842443,7.88888889 L60.5353893,11.4422222 C58.6615275,10.3829577 56.7876938,9.85333333 54.9138321,9.85333333 C53.600197,9.85333333 52.6294739,10.0651831 52.0016336,10.4888889 C51.3737933,10.9125947 51.0598779,11.4711076 51.0598779,12.1644444 C51.0598779,12.8577812 51.422088,13.3729613 52.1465191,13.71 C52.8709502,14.0470387 53.9768984,14.3792576 55.4643969,14.7066667 C57.00985,15.0725944 58.2751706,15.4385167 59.2603969,15.8044444 C60.2456232,16.1703722 61.0907802,16.7481442 61.7958931,17.5377778 C62.5010061,18.3274114 62.8535573,19.3962896 62.8535573,20.7444444 C62.8535573,21.9000058 62.5299829,22.9544397 61.8828244,23.9077778 C61.235666,24.8611159 60.2649429,25.6170342 58.970626,26.1755556 C57.6763091,26.7340769 56.1019024,27.0133333 54.2473588,27.0133333 Z" id="Path" fill-rule="nonzero"></path>
                <polygon id="Path" fill-rule="nonzero" points="68.2990229 6.44444444 72.993313 6.44444444 72.993313 26.6666667 68.2990229 26.6666667"></polygon>
                <path d="M93.738687,16.2377778 L98.0272977,16.2377778 L98.0272977,24.4422222 C96.9261624,25.2703745 95.6511828,25.9059237 94.2023206,26.3488889 C92.7534584,26.7918541 91.294959,27.0133333 89.8267786,27.0133333 C87.7210989,27.0133333 85.8279473,26.56556 84.1472672,25.67 C82.466587,24.77444 81.1481422,23.5322302 80.1918931,21.9433333 C79.2356441,20.3544365 78.7575267,18.5585285 78.7575267,16.5555556 C78.7575267,14.5525826 79.2356441,12.7566746 80.1918931,11.1677778 C81.1481422,9.57888094 82.476246,8.33667114 84.1762443,7.44111111 C85.8762426,6.54555108 87.788712,6.09777778 89.9137099,6.09777778 C91.6909809,6.09777778 93.3040233,6.39629331 94.7528855,6.99333333 C96.2017477,7.59037336 97.4187737,8.45703136 98.404,9.59333333 L95.3903817,12.3666667 C93.9415195,10.8451776 92.193252,10.0844444 90.1455267,10.0844444 C88.8512098,10.0844444 87.7017964,10.3540714 86.6972519,10.8933333 C85.6927074,11.4325953 84.9103336,12.1933284 84.3501069,13.1755556 C83.7898802,14.1577827 83.509771,15.2844381 83.509771,16.5555556 C83.509771,17.8074137 83.7898802,18.9244395 84.3501069,19.9066667 C84.9103336,20.8888938 85.687878,21.6544417 86.6827634,22.2033333 C87.6776487,22.752225 88.8125738,23.0266667 90.0875725,23.0266667 C91.4398439,23.0266667 92.6568699,22.7377807 93.738687,22.16 L93.738687,16.2377778 Z" id="Path" fill-rule="nonzero"></path>
                <polygon id="Path" fill-rule="nonzero" points="123.206168 6.44444444 123.206168 26.6666667 118.511878 26.6666667 118.511878 18.3755556 109.29716 18.3755556 109.29716 26.6666667 104.60287 26.6666667 104.60287 6.44444444 109.29716 6.44444444 109.29716 14.4177778 118.511878 14.4177778 118.511878 6.44444444"></polygon>
                <polygon id="Path" fill-rule="nonzero" points="134.447053 10.2577778 127.956183 10.2577778 127.956183 6.44444444 145.632214 6.44444444 145.632214 10.2577778 139.141344 10.2577778 139.141344 26.6666667 134.447053 26.6666667"></polygon>
            </g>
        </g>
    </g>
</svg>