<?xml version="1.0" encoding="UTF-8"?>
<svg width="110px" height="31px" viewBox="0 0 110 31" version="1.1" xmlns="http://www.w3.org/2000/svg" xmlns:xlink="http://www.w3.org/1999/xlink">
    <!-- Generator: Sketch 53.2 (72643) - https://sketchapp.com -->
    <title>Group Copy 2</title>
    <desc>Created with Sketch.</desc>
    <g id="Page-1" stroke="none" stroke-width="1" fill="none" fill-rule="evenodd">
        <g id="Home" transform="translate(-135.000000, -2173.000000)" fill="#FFFFFF">
            <g id="Group-Copy-2" transform="translate(135.000000, 2173.000000)">
                <path d="M4,0.0684931507 L29,0.0684931507 C31.209139,0.0684931507 33,1.85935415 33,4.06849315 L33,21.0684932 C33,23.2776322 31.209139,25.0684932 29,25.0684932 L21.1538462,25.0684932 L11.8461538,30.0684932 L11.8461538,25.0684932 L4,25.0684932 C1.790861,25.0684932 2.97107886e-13,23.2776322 2.94875235e-13,21.0684932 L2.94875235e-13,4.06849315 C2.94604694e-13,1.85935415 1.790861,0.0684931507 4,0.0684931507 Z M5.21061538,4.90182648 L5.21061538,20.0684932 L8.77461538,20.0684932 L8.77461538,4.90182648 L5.21061538,4.90182648 Z M28.2429231,4.90182648 L24.7229231,4.90182648 L24.7229231,14.1101598 L17.0669231,4.90182648 L14.1189231,4.90182648 L14.1189231,20.0684932 L17.6389231,20.0684932 L17.6389231,10.8601598 L25.3169231,20.0684932 L28.2429231,20.0684932 L28.2429231,4.90182648 Z" id="Combined-Shape"></path>
                <path d="M41.3659794,20.0684932 C40.1300053,20.0684932 38.935,19.902749 37.7809278,19.5712556 C36.6268556,19.2397622 35.699889,18.8088273 35,18.2784379 L36.2285223,15.5823053 C36.8986288,16.0684956 37.6952989,16.4589153 38.6185567,16.753576 C39.5418145,17.0482368 40.4650584,17.195565 41.3883162,17.195565 C42.4158127,17.195565 43.1752553,17.0445536 43.6666667,16.7425263 C44.1580781,16.440499 44.4037801,16.0390297 44.4037801,15.5381064 C44.4037801,15.1697804 44.2585925,14.8640745 43.9682131,14.6209793 C43.6778336,14.3778842 43.3055578,14.1826744 42.8513746,14.035344 C42.3971913,13.8880136 41.7829363,13.7259526 41.0085911,13.5491561 C39.8172907,13.2692284 38.8419282,12.9893049 38.0824742,12.7093771 C37.3230203,12.4294494 36.6715377,11.9800985 36.1280069,11.3613108 C35.5844761,10.7425232 35.3127148,9.91748542 35.3127148,8.88617271 C35.3127148,7.98745735 35.5584168,7.17346917 36.0498282,6.44418376 C36.5412396,5.71489834 37.2820684,5.13663525 38.2723368,4.70937713 C39.2626052,4.28211901 40.4725014,4.06849315 41.9020619,4.06849315 C42.8997759,4.06849315 43.8751384,4.18635569 44.8281787,4.42208431 C45.781219,4.65781293 46.6151167,4.99666774 47.3298969,5.4386589 L46.2130584,8.15689094 C44.7686068,7.34657381 43.3241768,6.94142133 41.8797251,6.94142133 C40.8671198,6.94142133 40.1188455,7.10348232 39.6348797,7.42760917 C39.150914,7.75173602 38.9089347,8.17898774 38.9089347,8.70937713 C38.9089347,9.23976652 39.1881415,9.63386939 39.7465636,9.89169757 C40.3049856,10.1495257 41.1574971,10.4036669 42.3041237,10.6541285 C43.4954241,10.9340562 44.4707866,11.2139798 45.2302405,11.4939075 C45.9896945,11.7738353 46.6411771,12.2158198 47.1847079,12.8198744 C47.7282387,13.423929 48,14.2416003 48,15.272913 C48,16.1568954 47.7505752,16.9635171 47.2517182,17.6928025 C46.7528612,18.422088 46.0045869,19.0003511 45.0068729,19.4276092 C44.0091588,19.8548673 42.7955398,20.0684932 41.3659794,20.0684932 Z" id="Path" fill-rule="nonzero"></path>
                <polygon id="Path" fill-rule="nonzero" points="51 5.06849315 55 5.06849315 55 20.0684932 51 20.0684932"></polygon>
                <path d="M70.4380531,11.8253992 L73.7123894,11.8253992 L73.7123894,18.1016423 C72.8716772,18.735163 71.8982356,19.221346 70.7920354,19.5602059 C69.6858352,19.8990657 68.572277,20.0684932 67.4513274,20.0684932 C65.8436498,20.0684932 64.3982365,19.7259551 63.1150442,19.0408688 C61.831852,18.3557825 60.8252249,17.4055158 60.0951327,16.1900401 C59.3650406,14.9745644 59,13.6007292 59,12.0684932 C59,10.5362571 59.3650406,9.16242188 60.0951327,7.94694619 C60.8252249,6.7314705 61.8392265,5.78120376 63.1371681,5.09611746 C64.4351097,4.41103116 65.8952721,4.06849315 67.5176991,4.06849315 C68.8746381,4.06849315 70.1061892,4.29685182 71.2123894,4.75357602 C72.3185896,5.21030022 73.2477838,5.87327702 74,6.7425263 L71.699115,8.86407326 C70.5929148,7.70016321 69.2581199,7.11821691 67.6946903,7.11821691 C66.7064847,7.11821691 65.8289124,7.32447636 65.0619469,7.73700144 C64.2949814,8.14952652 63.6976423,8.73147282 63.2699115,9.48285779 C62.8421808,10.2342428 62.6283186,11.0961126 62.6283186,12.0684932 C62.6283186,13.0261407 62.8421808,13.8806441 63.2699115,14.6320291 C63.6976423,15.383414 64.2912941,15.9690435 65.050885,16.3889351 C65.8104758,16.8088267 66.6769863,17.0187694 67.6504425,17.0187694 C68.682896,17.0187694 69.6120903,16.7977771 70.4380531,16.355786 L70.4380531,11.8253992 Z" id="Path" fill-rule="nonzero"></path>
                <polygon id="Path" fill-rule="nonzero" points="93 5.06849315 93 20.0684932 89.4672897 20.0684932 89.4672897 13.9184932 82.5327103 13.9184932 82.5327103 20.0684932 79 20.0684932 79 5.06849315 82.5327103 5.06849315 82.5327103 10.9827789 89.4672897 10.9827789 89.4672897 5.06849315"></polygon>
                <polygon id="Path" fill-rule="nonzero" points="101.77377 7.89706458 97 7.89706458 97 5.06849315 110 5.06849315 110 7.89706458 105.22623 7.89706458 105.22623 20.0684932 101.77377 20.0684932"></polygon>
            </g>
        </g>
    </g>
</svg>