<?xml version="1.0" standalone="no"?>
<!DOCTYPE svg PUBLIC "-//W3C//DTD SVG 20010904//EN"
 "http://www.w3.org/TR/2001/REC-SVG-20010904/DTD/svg10.dtd">
<svg version="1.0" xmlns="http://www.w3.org/2000/svg"
 width="1024.000000pt" height="1024.000000pt" viewBox="0 0 1024.000000 1024.000000"
 preserveAspectRatio="xMidYMid meet">
<metadata>
Created by potrace 1.11, written by Peter Selinger 2001-2013
</metadata>
<g transform="translate(0.000000,1024.000000) scale(0.100000,-0.100000)"
fill="#000000" stroke="none">
<path d="M0 5120 l0 -5120 5120 0 5120 0 0 5120 0 5120 -5120 0 -5120 0 0
-5120z m7708 2458 c69 -28 131 -76 167 -131 69 -105 65 31 65 -2057 0 -2078 4
-1951 -61 -2052 -35 -53 -105 -109 -170 -135 -40 -16 -120 -18 -929 -23 l-885
-5 -778 -432 c-428 -238 -780 -433 -783 -433 -2 0 -5 197 -6 437 l-3 438 -890
5 -890 5 -50 26 c-99 53 -164 141 -185 248 -14 74 -14 3768 0 3842 28 148 144
260 290 279 30 4 1182 7 2560 6 2338 -1 2508 -2 2548 -18z"/>
<path d="M3070 5420 l0 -1320 340 0 340 0 0 1320 0 1320 -340 0 -340 0 0
-1320z"/>
<path d="M4610 5420 l0 -1320 295 0 295 0 2 801 3 800 646 -798 645 -798 252
-3 252 -2 0 1320 0 1320 -300 0 -300 0 -2 -799 -3 -799 -644 799 -644 799
-248 0 -249 0 0 -1320z"/>
</g>
</svg>
