<?xml version="1.0" encoding="UTF-8"?>
<svg width="72px" height="64px" viewBox="0 0 72 64" version="1.1" xmlns="http://www.w3.org/2000/svg" xmlns:xlink="http://www.w3.org/1999/xlink">
    <!-- Generator: Sketch 53.2 (72643) - https://sketchapp.com -->
    <title>Group 10</title>
    <desc>Created with Sketch.</desc>
    <defs>
        <polygon id="path-1" points="0.0247695684 0.0348190313 24.7995021 0.0348190313 24.7995021 39.1304348 0.0247695684 39.1304348"></polygon>
        <polygon id="path-3" points="0.0257378808 0.0034088219 1.26402046 0.0034088219 1.26402046 3.98458248 0.0257378808 3.98458248"></polygon>
        <polygon id="path-5" points="0.072260982 0.0875513164 3.93618425 0.0875513164 3.93618425 1.3399142 0.072260982 1.3399142"></polygon>
    </defs>
    <g id="Page-1" stroke="none" stroke-width="1" fill="none" fill-rule="evenodd">
        <g id="Home" transform="translate(-135.000000, -789.000000)">
            <g id="Group-10" transform="translate(135.000000, 789.000000)">
                <path d="M29.4222948,68 C45.9906901,68 68,50.7511809 68,29.4736842 C68,8.19618753 54.8445896,-4 37.643773,-4 C20.4429563,-4 4,7.38309829 4,28.660595 C4,49.9380916 12.8538996,68 29.4222948,68 Z" id="Oval-Copy-9" fill-opacity="0.33" fill="#99EFE9" transform="translate(36.000000, 32.000000) rotate(-270.000000) translate(-36.000000, -32.000000) "></path>
                <g id="Group-30" transform="translate(16.000000, 10.000000)">
                    <g id="Group-3" transform="translate(7.134072, 5.397301)">
                        <mask id="mask-2" fill="white">
                            <use xlink:href="#path-1"></use>
                        </mask>
                        <g id="Clip-2"></g>
                        <path d="M14.7207569,18.1825711 C14.7433282,18.1901266 14.7658996,18.1979075 14.7884709,18.205463 C14.7884709,18.3457461 14.7749724,18.4881719 14.7947776,18.6255231 C14.8036291,18.6868688 14.8794202,18.78633 14.9250054,18.78633 C15.2351402,18.7872322 15.5502539,18.7958025 15.8545245,18.7446059 C16.2020569,18.6860794 16.4713641,18.3203734 16.4898416,17.9647037 C16.5072127,17.6294449 16.2301605,17.2480642 15.876764,17.120862 C15.5622035,17.0077559 15.1540382,17.1139832 14.9809912,17.4186819 C14.850874,17.6477133 14.8044036,17.9261371 14.7207569,18.1825711 L14.7207569,18.1825711 Z M10.0428449,18.1543792 C10.061765,17.9135071 10.04716,17.6154617 9.82222103,17.3607192 C9.55966313,17.0633505 9.09783564,16.9908407 8.7415624,17.2123168 C8.40841372,17.4192457 8.26302768,17.9105751 8.42158034,18.2677108 C8.6305866,18.7381782 9.02337232,18.8104623 9.47037354,18.8012154 C10.0427342,18.7894875 10.0429555,18.7977196 10.0428449,18.1543792 L10.0428449,18.1543792 Z M9.46683293,36.6788623 C9.73403787,36.9545796 9.94392928,37.1950006 10.1807071,37.4037339 C10.2792908,37.4907906 10.4349668,37.5528129 10.5651946,37.5540534 C11.8082784,37.5651046 13.0513622,37.5612705 14.2944461,37.5589024 C14.3757693,37.5587896 14.4840896,37.5667961 14.5336581,37.5198847 C14.8038504,37.2650294 15.059659,36.9940484 15.3692406,36.6788623 L9.46683293,36.6788623 Z M12.4441487,33.8947375 C11.3471148,33.8947375 10.2501915,33.8928204 9.15315757,33.8962035 C8.89668509,33.8969929 8.53443708,33.8163639 8.41206497,33.9521363 C8.27420271,34.105275 8.34401899,34.4604937 8.33859744,34.727979 C8.33096301,35.102932 8.33693778,35.1038341 8.69575584,35.1038341 C11.1753955,35.1045107 13.6551458,35.1047362 16.1347855,35.104849 C16.1901074,35.104849 16.2602556,35.1262749 16.2976532,35.0997745 C16.3727804,35.0464353 16.4774495,34.9725724 16.4858584,34.897469 C16.510864,34.6748653 16.4777814,34.4457211 16.4995783,34.2224408 C16.5254689,33.9593535 16.429762,33.8874076 16.177494,33.8896629 C14.9330824,33.9011653 13.6885602,33.8948503 12.4441487,33.8947375 L12.4441487,33.8947375 Z M12.4035424,32.347563 L15.7200923,32.347563 C16.495927,32.347563 16.495927,32.347563 16.4952632,31.5445433 C16.4949312,31.1230172 16.4949312,31.1215512 16.090196,31.1214384 C13.6396557,31.1211001 11.1890047,31.1215512 8.73846437,31.1217767 C8.67395899,31.1217767 8.60945362,31.1222278 8.54505889,31.1238065 C8.40066865,31.1270768 8.32808627,31.1906779 8.33417168,31.3500188 C8.34302319,31.5749906 8.3483341,31.8014284 8.33328653,32.0257236 C8.31691124,32.2667084 8.39580032,32.3545546 8.64474901,32.3521864 C9.8975695,32.3409097 11.1505006,32.3469991 12.4035424,32.347563 L12.4035424,32.347563 Z M13.2671178,23.4721714 C13.2671178,22.5234557 13.2629133,21.5746272 13.2705477,20.6260243 C13.2720967,20.4311615 13.2089191,20.3561709 13.0175052,20.3601178 C12.6122167,20.3682371 12.2064857,20.3671094 11.8010866,20.3605689 C11.6235031,20.3577497 11.5607681,20.4278912 11.5612107,20.6104623 C11.5658577,22.5080065 11.5666322,24.4055507 11.5607681,26.3030949 C11.5602149,26.5189325 11.6492832,26.5819697 11.8418035,26.5786994 C12.2104689,26.5722716 12.5795768,26.5642651 12.9475783,26.5811803 C13.2082552,26.5930209 13.2754161,26.4860043 13.2720967,26.2337426 C13.2597046,25.3133317 13.2671178,24.3926952 13.2671178,23.4721714 L13.2671178,23.4721714 Z M12.4435955,28.1426764 C11.9456981,28.1426764 11.4479113,28.1425636 10.9500139,28.1426764 C10.2032785,28.1429019 9.45643241,28.1427891 8.70969696,28.1439168 C8.33583134,28.1444806 8.33594199,28.1454956 8.33638456,28.5371382 C8.33671649,28.7532014 8.33660585,28.9693773 8.33660585,29.1854404 C8.33660585,29.5530635 8.33660585,29.5536274 8.70958632,29.5537401 C11.1896686,29.5540784 13.6697508,29.5541912 16.1497224,29.554304 C16.1958609,29.5544167 16.2419994,29.5548678 16.2880272,29.5537401 C16.433192,29.5505826 16.5048892,29.4856284 16.4970335,29.3267385 C16.4877394,29.1392056 16.4951525,28.9509961 16.4952632,28.7630122 C16.4955951,28.1439168 16.4955951,28.1431274 15.8732234,28.1427891 C14.7300509,28.1422253 13.5868785,28.1426764 12.4435955,28.1426764 L12.4435955,28.1426764 Z M13.2464274,18.4828718 C13.2628027,18.080629 13.2214218,17.657073 13.3315125,17.2811051 C13.697633,16.0314121 14.9711439,15.2534269 16.2644601,15.6110137 C17.7551649,16.0231801 18.4849718,17.8508082 17.6690839,19.1697406 C17.1770507,19.9650921 16.4694832,20.3525623 15.5539052,20.3605689 C15.3082758,20.3627114 15.0626464,20.3607944 14.8180128,20.3607944 C14.8038504,20.4413106 14.7920115,20.4772835 14.7919009,20.5131437 C14.7904625,22.4581631 14.7914583,24.4032953 14.7869219,26.3483147 C14.7864793,26.5224283 14.8547466,26.5790377 15.0159547,26.5773462 C15.4585302,26.5727227 15.9017695,26.5613332 16.3432385,26.5833229 C16.6050219,26.596404 16.732041,26.5047237 16.8234329,26.2528004 C17.3962362,24.6752913 18.1804799,23.207167 19.1341194,21.838955 C19.9241165,20.7055256 20.8013011,19.6335547 21.5617564,18.4809548 C22.0342057,17.7649919 22.4190251,16.9733617 22.7374581,16.1721463 C23.0866501,15.2931212 23.2019411,14.3459842 23.2512882,13.3927578 C23.3112572,12.2304598 23.2304872,11.0807919 22.9538775,9.95615838 C22.7303769,9.04691141 22.3867171,8.1781481 21.9407116,7.35043228 C21.0578842,5.71247964 19.8493213,4.38227039 18.3175676,3.3693898 C17.0739306,2.5468613 15.7135643,2.01933342 14.2429967,1.75432903 C12.4868572,1.43778975 10.776635,1.5855156 9.09086508,2.12815437 C7.56597133,2.61891993 6.22032064,3.43039719 5.04594666,4.53879213 C3.74200871,5.76931462 2.79047147,7.23687508 2.19056043,8.93921814 C1.89768612,9.770317 1.66577658,10.6226162 1.63037054,11.5085202 C1.59817318,12.3136825 1.59009618,13.1230172 1.63147698,13.9272773 C1.69454399,15.1501316 2.05026401,16.3000251 2.60492171,17.3845132 C3.1840317,18.5173788 3.98719551,19.4921438 4.72275593,20.5161884 C5.37666117,21.4269014 6.04030307,22.3389675 6.59485013,23.3124922 C7.14983975,24.2871445 7.58057632,25.3358852 8.05125532,26.3590277 C8.12682508,26.5234432 8.20969734,26.5830974 8.37942503,26.5799399 C8.82188984,26.571595 9.26501852,26.563363 9.70681947,26.5820824 C9.97114767,26.5933592 10.0503687,26.5067535 10.0485984,26.2335171 C10.0373127,24.3919058 10.0427342,22.5500689 10.0427342,20.7084576 L10.0427342,20.361471 C9.76424364,20.361471 9.51662267,20.3798521 9.27287424,20.3567347 C8.97192292,20.3280917 8.65459632,20.3165894 8.37831859,20.207994 C6.91107029,19.6316376 6.36692376,17.9315499 7.23625261,16.590515 C7.7613684,15.7803909 8.54848885,15.4252851 9.49648549,15.5466232 C10.4204724,15.6649167 11.045389,16.2057512 11.4220207,17.0734996 C11.6221754,17.5352838 11.572607,18.0128555 11.5785817,18.4879464 C11.5810159,18.6879965 11.6336824,18.771783 11.8400332,18.7839619 C12.1578024,18.8027941 13.039634,18.9076682 13.3562967,18.946122 C13.2249625,19.0094976 13.2581556,19.0235935 13.135009,19.0588899 L13.2464274,18.4828718 Z M6.81680172,31.7056885 C6.81669108,30.5122666 6.79699647,29.3182809 6.8260958,28.1256484 C6.83848792,27.6213507 6.73791264,27.1594537 6.55712057,26.7049994 C5.91605001,25.0939982 5.09617897,23.586518 4.05811823,22.2031951 C3.41240064,21.3426638 2.76668304,20.4817943 2.14652418,19.6022052 C1.17606683,18.225874 0.486976843,16.7223406 0.215014223,15.0336424 C-0.0706682366,13.2599173 -0.0434498458,11.4937477 0.356859658,9.74550808 C0.644091132,8.49119158 1.12616645,7.30825711 1.77376499,6.19704298 C2.43397694,5.06406465 3.25074995,4.06336299 4.2192157,3.19617842 C5.18004702,2.33575993 6.24455165,1.64043353 7.42169173,1.11177797 C9.21788424,0.305262498 11.0899784,-0.0422879338 13.0419575,0.0490540033 C14.1132114,0.0991229169 15.1590172,0.305262498 16.1844646,0.636123293 C17.6977407,1.1246335 19.0644137,1.88322265 20.2839304,2.91087583 C21.4866292,3.92432026 22.4792153,5.11943365 23.2357981,6.51922065 C23.7336955,7.44053377 24.1267025,8.40007518 24.3890391,9.4156622 C24.7728626,10.9019421 24.8742124,12.4088585 24.7482997,13.9411477 C24.651265,15.1213758 24.405525,16.2578499 23.952549,17.346736 C23.3736603,18.7380654 22.4865178,19.9302468 21.5811191,21.1068663 C20.4858555,22.5296579 19.4692596,24.0026312 18.7218603,25.6500564 C18.4756777,26.1930335 18.2694375,26.7555194 18.0616484,27.3155244 C18.0116373,27.4503947 18.016727,27.6108633 18.0166163,27.7596041 C18.0142928,30.3439043 18.0030071,32.9282045 18.0254678,35.5122792 C18.0296723,36.0074427 17.8766518,36.3661571 17.537639,36.6988222 C16.8205561,37.4023807 16.13556,38.1403333 15.4109533,38.8355469 C15.2467578,38.9930836 14.975791,39.1120536 14.7518478,39.1154367 C13.1940928,39.1393434 11.6357846,39.1246836 10.0775871,39.1304348 C9.70670883,39.131788 9.46970967,38.9095226 9.2339276,38.6688761 C8.52425785,37.9446811 7.81204329,37.2231926 7.1048077,36.4965167 C6.91826214,36.3049242 6.81193339,36.0795013 6.81359305,35.7934093 C6.82133812,34.4309485 6.81702301,33.0682621 6.81680172,31.7056885 L6.81680172,31.7056885 Z" id="Fill-1" fill="#00B795" mask="url(#mask-2)"></path>
                    </g>
                    <g id="Group-6" transform="translate(18.572256, 0.000000)">
                        <mask id="mask-4" fill="white">
                            <use xlink:href="#path-3"></use>
                        </mask>
                        <use id="Clip-5" stroke="#00B795" stroke-linecap="round" stroke-linejoin="round" xlink:href="#path-3"></use>
                        <path d="M1.26151948,2.02515979 C1.26151948,2.59315474 1.25730306,3.16114969 1.26394169,3.72903811 C1.26609476,3.90693601 1.22473787,3.99034562 1.06262966,3.98427365 C0.786319036,3.97383414 0.509380432,3.97511244 0.233069807,3.98395408 C0.0768825343,3.98885426 0.0249397253,3.91556459 0.0257471264,3.73234041 C0.030770956,2.56162314 0.0298738436,1.39090586 0.0279899075,0.22018859 C0.0277207738,0.077657224 0.069705635,0.00330229622 0.195570507,0.0041545017 C0.494578077,0.00628501539 0.793585646,0.00820247771 1.0925035,0.0034088219 C1.23765629,0.00117178253 1.26331371,0.0948078592 1.26232689,0.241280675 C1.25864872,0.835907046 1.26080179,1.43053342 1.26080179,2.02515979 L1.26151948,2.02515979 Z" id="Fill-4" fill="#00B795" mask="url(#mask-4)"></path>
                    </g>
                    <g id="Group-9" transform="translate(34.720279, 18.890555)">
                        <mask id="mask-6" fill="white">
                            <use xlink:href="#path-5"></use>
                        </mask>
                        <use id="Clip-8" stroke="#00B795" stroke-linecap="round" stroke-linejoin="round" xlink:href="#path-5"></use>
                        <path d="M1.99338035,1.33568816 C1.4503513,1.33568816 0.906908197,1.32723238 0.364189688,1.33964618 C0.13190658,1.34495352 0.0616212719,1.27191004 0.0735252636,1.07850675 C0.0892592353,0.824473763 0.0854292554,0.569001499 0.0749744452,0.314518741 C0.0682461021,0.152869565 0.129008216,0.0865727136 0.324751245,0.0875622189 C1.44538267,0.0931394303 2.56611762,0.0925997001 3.68674905,0.0886416792 C3.85785599,0.088011994 3.94170149,0.127592204 3.93590477,0.29086057 C3.9257605,0.575298351 3.9274167,0.860275862 3.93518018,1.1448036 C3.9393207,1.29574813 3.86106489,1.33793703 3.70030925,1.33658771 C3.13140195,1.33182009 2.56239115,1.33469865 1.99338035,1.33469865 L1.99338035,1.33568816 Z" id="Fill-7" fill="#00B795" mask="url(#mask-6)"></path>
                    </g>
                    <path d="M2.45100386,18.8940769 C3.02184367,18.8937854 3.59279051,18.8997111 4.16341624,18.8906769 C4.37171443,18.8873741 4.45113748,18.950516 4.44203915,19.1429532 C4.42844518,19.4337946 4.4336901,19.7257045 4.4405406,20.0170316 C4.44396586,20.1660466 4.39451377,20.2406512 4.21372464,20.2398741 C3.1345559,20.2353084 2.05528011,20.241914 0.97611137,20.2335599 C0.586060696,20.2306456 0.351751989,19.9365985 0.416403638,19.5878609 C0.445625327,19.4297146 0.452047676,19.2661285 0.448622423,19.1054566 C0.445304209,18.9478932 0.512096641,18.8904826 0.685071913,18.892134 C1.27357318,18.8980597 1.86228852,18.8944654 2.45100386,18.8940769" id="Fill-10" stroke="#00B795" fill="#00B795" stroke-linecap="round" stroke-linejoin="round"></path>
                    <path d="M30.0104391,3.34550799 C29.534545,4.13658735 29.0808742,4.89125945 28.62653,5.64550196 C28.4413354,5.95308427 28.2422231,6.25390063 28.0735276,6.56964504 C27.9822772,6.74040477 27.8947306,6.79904302 27.711893,6.69476145 C27.4005415,6.51691357 27.0835781,6.34797958 26.7693084,6.17464234 C26.6305808,6.09806895 26.6111634,6.01870326 26.7009548,5.87167806 C27.3190559,4.85818146 27.9209946,3.8355562 28.5403304,2.82281138 C28.5834302,2.75225217 28.7562785,2.67632316 28.8145307,2.70478311 C29.2175815,2.9012105 29.6060413,3.1247017 30.0104391,3.34550799" id="Fill-12" stroke="#00B795" fill="#00B795" stroke-linecap="round" stroke-linejoin="round"></path>
                    <path d="M9.15257532,3.35027012 C9.55273852,3.13123414 9.94440928,2.90679255 10.3491018,2.70635193 C10.4079826,2.67716155 10.5760194,2.73597476 10.6145184,2.7984638 C11.2548475,3.84012796 11.8848724,4.88752207 12.5060652,5.93956503 C12.5373173,5.99254017 12.4953081,6.14249224 12.4406169,6.17481788 C12.0982022,6.37742075 11.7468421,6.56748256 11.3868764,6.73970581 C11.3295809,6.76705828 11.16981,6.7085694 11.1322168,6.64770205 C10.61282,5.80777587 10.1057654,4.96093048 9.597805,4.11473376 C9.45354696,3.87450774 9.31562994,3.630714 9.15257532,3.35027012" id="Fill-14" stroke="#00B795" fill="#00B795" stroke-linecap="round" stroke-linejoin="round"></path>
                    <path d="M3.0766347,30.3598201 C2.84817,29.9540625 2.62691884,29.5822962 2.4331222,29.1954476 C2.40114576,29.1316294 2.46079205,28.9508675 2.52668291,28.9102355 C3.55466641,28.2765557 4.59147842,27.658521 5.6237685,27.032495 C5.75425824,26.9532569 5.83608349,26.9748673 5.90800357,27.1093694 C6.08995708,27.4499582 6.28353839,27.7841314 6.45332578,28.1310233 C6.4804573,28.1863999 6.43340779,28.3387982 6.37903706,28.3718891 C5.29549853,29.0329195 4.20593077,29.6829196 3.0766347,30.3598201" id="Fill-16" stroke="#00B795" fill="#00B795" stroke-linecap="round" stroke-linejoin="round"></path>
                    <path d="M33.4055297,26.9865067 C33.5359844,27.0562835 33.6484454,27.1094413 33.754373,27.1743235 C34.7225017,27.7678244 35.6915943,28.3596178 36.6521184,28.9665504 C36.7143469,29.0057074 36.7615805,29.1940933 36.7271996,29.2627317 C36.5558304,29.6034199 36.3532935,29.926237 36.1651087,30.2573636 C36.0931337,30.3840545 36.0219083,30.3831439 35.9032352,30.3096108 C35.0837693,29.802278 34.2593765,29.3038238 33.4361619,28.8033206 C33.2444426,28.6867604 33.0517594,28.5720215 32.8586478,28.458307 C32.7154475,28.3738464 32.6454003,28.2887028 32.7565761,28.102252 C32.9360853,27.8012899 33.0837841,27.4791557 33.2512974,27.1697703 C33.288356,27.1012457 33.3518697,27.0488847 33.4055297,26.9865067" id="Fill-18" stroke="#00B795" fill="#00B795" stroke-linecap="round" stroke-linejoin="round"></path>
                    <path d="M3.08189152,9.44527736 C4.22053524,10.150542 5.33121486,10.8384844 6.46123807,11.5384625 C6.24845855,11.9453113 6.05544315,12.3154909 5.86148159,12.6851081 C5.79041491,12.8205369 5.71009695,12.8609181 5.56554565,12.76902 C5.02718405,12.4272984 4.48093783,12.0997497 3.93795059,11.7662393 C3.49378387,11.4934695 3.05329664,11.2137257 2.60492479,10.9493921 C2.40833503,10.8334227 2.37048887,10.7191406 2.49958632,10.5074487 C2.70364019,10.1728136 2.87941457,9.81849398 3.08189152,9.44527736" id="Fill-20" stroke="#00B795" fill="#00B795" stroke-linecap="round" stroke-linejoin="round"></path>
                    <path d="M36.0664379,9.44527736 C36.2819585,9.83601542 36.4919611,10.2090553 36.6940051,10.5872668 C36.770196,10.7297713 36.7555521,10.8449241 36.6003051,10.9399654 C35.7074491,11.4866539 34.823719,12.0505809 33.9286346,12.5929023 C33.3678141,12.9327295 33.359537,12.9212372 33.0427822,12.3340958 C32.9414419,12.1463117 32.8669488,11.9397951 32.7525563,11.7626988 C32.6573706,11.6152527 32.7058654,11.5336574 32.8164378,11.4647036 C33.8888413,10.7960818 34.9627304,10.130563 36.0664379,9.44527736" id="Fill-22" stroke="#00B795" fill="#00B795" stroke-linecap="round" stroke-linejoin="round"></path>
                </g>
            </g>
        </g>
    </g>
</svg>