<?xml version="1.0" encoding="UTF-8"?>
<svg width="70px" height="64px" viewBox="0 0 70 64" version="1.1" xmlns="http://www.w3.org/2000/svg" xmlns:xlink="http://www.w3.org/1999/xlink">
    <!-- Generator: Sketch 53.2 (72643) - https://sketchapp.com -->
    <title>Group 20</title>
    <desc>Created with Sketch.</desc>
    <g id="Page-1" stroke="none" stroke-width="1" fill="none" fill-rule="evenodd">
        <g id="Home" transform="translate(-982.000000, -1590.000000)">
            <g id="Group-20" transform="translate(982.000000, 1590.000000)">
                <path d="M31.2485431,67 C62.8973738,67 67,51.0844334 67,31.4515871 C67,11.8187408 51.7616741,11.6377176 38.867706,0.565261139 C25.973738,-10.5071953 3.11624915,5.99113211 3.11624915,25.6239784 C3.11624915,45.2568248 -0.400287596,67 31.2485431,67 Z" id="Oval-Copy-8" fill-opacity="0.5" fill="#DEDFFA" transform="translate(35.000000, 32.000000) rotate(-270.000000) translate(-35.000000, -32.000000) "></path>
                <path d="M36.96,29.38 C38.6773419,29.6600014 39.9933288,30.2993283 40.908,31.298 C41.8226712,32.2966717 42.28,33.533326 42.28,35.008 C42.28,36.1466724 41.9813363,37.1966619 41.384,38.158 C40.7866637,39.1193381 39.8766728,39.8893304 38.654,40.468 C37.4313272,41.0466696 35.9333422,41.336 34.16,41.336 C32.7786598,41.336 31.4206733,41.1540018 30.086,40.79 C28.7513267,40.4259982 27.617338,39.9080034 26.684,39.236 L28.448,35.764 C29.1946704,36.3240028 30.0579951,36.7579985 31.038,37.066 C32.0180049,37.3740015 33.0213282,37.528 34.048,37.528 C35.1866724,37.528 36.0826634,37.3086689 36.736,36.87 C37.3893366,36.4313311 37.716,35.8106707 37.716,35.008 C37.716,33.4026586 36.4933456,32.6 34.048,32.6 L31.976,32.6 L31.976,29.604 L36.008,25.04 L27.664,25.04 L27.664,21.4 L41.384,21.4 L41.384,24.34 L36.96,29.38 Z" id="3" fill="#493CD3" fill-rule="nonzero"></path>
            </g>
        </g>
    </g>
</svg>