<?xml version="1.0" encoding="UTF-8"?>
<svg width="70px" height="65px" viewBox="0 0 70 65" version="1.1" xmlns="http://www.w3.org/2000/svg" xmlns:xlink="http://www.w3.org/1999/xlink">
    <!-- Generator: Sketch 53.2 (72643) - https://sketchapp.com -->
    <title>Group 19</title>
    <desc>Created with Sketch.</desc>
    <g id="Page-1" stroke="none" stroke-width="1" fill="none" fill-rule="evenodd">
        <g id="Home" transform="translate(-685.000000, -1589.000000)">
            <g id="Group-19" transform="translate(685.000000, 1589.000000)">
                <path d="M35,65 C44.7540984,65 70,49.4281494 70,30.2192982 C70,11.0104471 61.7889826,0 42.4590164,0 C23.1290502,0 0,11.0104471 0,30.2192982 C0,49.4281494 25.2459016,65 35,65 Z" id="Oval-Copy-6" fill-opacity="0.33" fill="#99EFE9"></path>
                <path d="M42.476,38.304 L42.476,42 L27.664,42 L27.664,39.06 L35.224,31.92 C36.0266707,31.1546628 36.5679986,30.4966694 36.848,29.946 C37.1280014,29.3953306 37.268,28.849336 37.268,28.308 C37.268,27.5239961 37.0020027,26.9220021 36.47,26.502 C35.9379973,26.0819979 35.1586718,25.872 34.132,25.872 C33.273329,25.872 32.4986701,26.0353317 31.808,26.362 C31.1173299,26.6886683 30.538669,27.1786634 30.072,27.832 L26.768,25.704 C27.5333372,24.5653276 28.5879933,23.6740032 29.932,23.03 C31.2760067,22.3859968 32.8159913,22.064 34.552,22.064 C36.0080073,22.064 37.2819945,22.3019976 38.374,22.778 C39.4660055,23.2540024 40.3153303,23.9259957 40.922,24.794 C41.5286697,25.6620043 41.832,26.6839941 41.832,27.86 C41.832,28.9240053 41.6080022,29.922662 41.16,30.856 C40.7119978,31.789338 39.8440064,32.8533274 38.556,34.048 L34.048,38.304 L42.476,38.304 Z" id="2" fill="#00B795" fill-rule="nonzero"></path>
            </g>
        </g>
    </g>
</svg>